<svg xmlns="http://www.w3.org/2000/svg" width="1220" height="560" viewBox="0 0 915.001 420.001"><title>SVG export:G:/Temp/mpf.gve</title><g fill="none" fill-rule="evenodd" stroke="#000" stroke-linecap="square" stroke-linejoin="bevel" font-family="'MS Shell Dlg 2'" font-size="8.25" font-weight="400"><g stroke="silver" style="stroke-width:1.01105;stroke-dasharray:none;stroke-dashoffset:0"><path d="M0 0v118M263 0v118M494 0v118M907 0v118" style="stroke-width:2.14583;stroke-dasharray:none;stroke-dashoffset:0"/></g><g style="stroke-width:1.01105;stroke-dasharray:none;stroke-dashoffset:0"><path d="M0 59h917" style="stroke-width:2.14583;stroke-dasharray:none;stroke-dashoffset:0"/></g><g stroke="#00f" style="stroke-width:1.01105;stroke-dasharray:none;stroke-dashoffset:0"><text xml:space="preserve" x="34.818" y="13.463" fill="#00f" stroke="none" style="font-style:normal;font-weight:400;font-size:8.25px;font-family:&quot;MS Shell Dlg 2&quot;;fill:#00f;fill-opacity:1;stroke:none;stroke-width:2.14583;stroke-dasharray:none;stroke-dashoffset:0"><tspan style="font-style:normal;font-variant:normal;font-weight:400;font-stretch:normal;font-size:14px;font-family:Sans;-inkscape-font-specification:&quot;Sans, Normal&quot;;font-variant-ligatures:normal;font-variant-caps:normal;font-variant-numeric:normal;font-variant-east-asian:normal">Block #48 - #53 (6) [@0.0265 ms]</tspan></text></g><g stroke="red" style="stroke-width:1.01105;stroke-dasharray:none;stroke-dashoffset:0"><path d="m241 59 4 32h23l5-32" style="stroke-width:2.14583;stroke-dasharray:none;stroke-dashoffset:0"/><text xml:space="preserve" x="232.087" y="104.347" fill="red" stroke="none" style="font-style:normal;font-weight:400;font-size:8.25px;font-family:&quot;MS Shell Dlg 2&quot;;fill:red;fill-opacity:1;stroke:none;stroke-width:2.14583;stroke-dasharray:none;stroke-dashoffset:0"><tspan style="font-style:normal;font-variant:normal;font-weight:400;font-stretch:normal;font-size:14px;font-family:Sans;-inkscape-font-specification:&quot;Sans, Normal&quot;;font-variant-ligatures:normal;font-variant-caps:normal;font-variant-numeric:normal;font-variant-east-asian:normal">Trap #2</tspan></text><path d="m128 59 4-33h23l5 33" style="stroke-width:2.14583;stroke-dasharray:none;stroke-dashoffset:0"/><text xml:space="preserve" x="159.995" y="37.62" fill="red" stroke="none" style="font-style:normal;font-weight:400;font-size:8.25px;font-family:&quot;MS Shell Dlg 2&quot;;fill:red;fill-opacity:1;stroke:none;stroke-width:2.14583;stroke-dasharray:none;stroke-dashoffset:0"><tspan style="font-style:normal;font-variant:normal;font-weight:400;font-stretch:normal;font-size:14px;font-family:Sans;-inkscape-font-specification:&quot;Sans, Normal&quot;;font-variant-ligatures:normal;font-variant-caps:normal;font-variant-numeric:normal;font-variant-east-asian:normal">Trap #1</tspan></text></g><g stroke="#00f" style="stroke-width:1.01105;stroke-dasharray:none;stroke-dashoffset:0"><text xml:space="preserve" x="325" y="9" fill="#00f" stroke="none" style="font-style:normal;font-weight:400;font-size:8.25px;font-family:&quot;MS Shell Dlg 2&quot;;fill:#00f;fill-opacity:1;stroke:none;stroke-width:2.14583;stroke-dasharray:none;stroke-dashoffset:0" transform="translate(-29.19 5.522)"><tspan style="font-style:normal;font-variant:normal;font-weight:400;font-stretch:normal;font-size:14px;font-family:Sans;-inkscape-font-specification:&quot;Sans, Normal&quot;;font-variant-ligatures:normal;font-variant-caps:normal;font-variant-numeric:normal;font-variant-east-asian:normal">Block #54 - #57 (4) [@1 ms]</tspan></text></g><g stroke="red" style="stroke-width:1.01105;stroke-dasharray:none;stroke-dashoffset:0"><path d="m493 59 1-26h7l1 26" style="stroke-width:2.14583;stroke-dasharray:none;stroke-dashoffset:0"/></g><g stroke="#00f" style="stroke-width:1.01105;stroke-dasharray:none;stroke-dashoffset:0"><text xml:space="preserve" x="638.422" y="8.737" fill="#00f" stroke="none" style="font-style:normal;font-weight:400;font-size:8.25px;font-family:&quot;MS Shell Dlg 2&quot;;fill:#00f;fill-opacity:1;stroke:none;stroke-width:3.56316;stroke-dasharray:none;stroke-dashoffset:0" transform="translate(-107.555 4.996)"><tspan x="638.422" y="8.737" style="font-style:normal;font-variant:normal;font-weight:400;font-stretch:normal;font-size:14px;font-family:Sans;-inkscape-font-specification:&quot;Sans, Normal&quot;;font-variant-ligatures:normal;font-variant-caps:normal;font-variant-numeric:normal;font-variant-east-asian:normal">Block #58 - #98 (41)</tspan><tspan x="638.422" y="26.237" style="font-style:normal;font-variant:normal;font-weight:400;font-stretch:normal;font-size:14px;font-family:Sans;-inkscape-font-specification:&quot;Sans, Normal&quot;;font-variant-ligatures:normal;font-variant-caps:normal;font-variant-numeric:normal;font-variant-east-asian:normal">                  [@0.82 ms]</tspan></text></g><g stroke="red" style="stroke-width:1.01105;stroke-dasharray:none;stroke-dashoffset:0"><path d="m901 59 2-48h2l2 48m-12 0 2 47h2l2-47m-13 0 2-48h2l3 48m-13 0 2 47h2l2-47m-12 0 2-48h2l2 48m-13 0 3 47h1l3-47m-13 0 2-48h2l2 48m-12 0 2 47h2l2-47m-13 0 3-48h1l3 48m-13 0 2 47h2l2-47m-12 0 2-48h2l2 48m-13 0 3 47h1l3-47m-13 0 2-48h2l2 48m-12 0 2 47h2l2-47m-13 0 3-48h1l3 48m-13 0 2 47h2l2-47m-12 0 2-48h2l2 48m-13 0 3 47h2l2-47m-13 0 2-48h2l2 48m-12 0 2 47h2l2-47m-13 0 3-48h2l2 48m-13 0 2 47h2l2-47m-12 0 2-48h2l2 48m-13 0 3 47h2l2-47m-13 0 2-48h2l2 48m-12 0 2 47h2l2-47m-13 0 3-48h2l2 48m-13 0 2 47h2l2-47m-12 0 2-48h2l2 48m-13 0 3 47h2l2-47m-13 0 2-48h2l2 48m-12 0 2 47h2l2-47m-13 0 3-48h2l2 48m-13 0 2 47h2l2-47m-12 0 2-48h2l2 48m-13 0 3 47h2l2-47m-13 0 2-48h2l2 48m-10 0 2 44h0l2-44m-135 0 1-26h7l1 26" style="stroke-width:2.14583;stroke-dasharray:none;stroke-dashoffset:0"/></g><path stroke="#f0f" stroke-width="4" d="M674 59h5m1 0h5m1 0h6m1 0h5m1 0h5m1 0h6m1 0h5m1 0h5m1 0h6m1 0h5m1 0h5m1 0h6m1 0h5m1 0h5m1 0h6m1 0h5m1 0h5m1 0h6m1 0h5m1 0h5m1 0h6m1 0h5m1 0h5m1 0h6m1 0h5m1 0h5m1 0h6m0 0h6m1 0h5m1 0h6m0 0h6m1 0h5m1 0h5m1 0h6m1 0h5m1 0h5m1 0h6" style="stroke-width:4.0442;stroke-dasharray:none;stroke-dashoffset:0"/><text xml:space="preserve" x="930.5" y="9" fill="#00f" stroke="none">Block #99 - #102 (4) [@0.0265 ms</text><g style="stroke-width:1.01105;stroke-dasharray:none;stroke-dashoffset:0"><path d="M40 57v4m45-4v4m46-4v4m46-4v4m46-4v4m46-4v4m46-4v4m46-4v4m45-4v4m46-4v4m46-4v4m46-4v4m46-4v4m46-4v4m46-4v4m45-4v4m46-4v4m46-4v4m46-4v4m46-4v4M0 6h4" style="stroke-width:2.14583;stroke-dasharray:none;stroke-dashoffset:0"/><text xml:space="preserve" x="6" y="9" fill="#000" stroke="none" style="stroke-width:2.14583;stroke-dasharray:none;stroke-dashoffset:0">40</text><path d="M0 33h4" style="stroke-width:2.14583;stroke-dasharray:none;stroke-dashoffset:0"/><text xml:space="preserve" x="6" y="36" fill="#000" stroke="none" style="stroke-width:2.14583;stroke-dasharray:none;stroke-dashoffset:0">20</text><path d="M0 85h4" style="stroke-width:2.14583;stroke-dasharray:none;stroke-dashoffset:0"/><text xml:space="preserve" x="6" y="88" fill="#000" stroke="none" style="stroke-width:2.14583;stroke-dasharray:none;stroke-dashoffset:0">-20</text><path d="M0 112h4" style="stroke-width:2.14583;stroke-dasharray:none;stroke-dashoffset:0"/></g><g stroke-dasharray="1,2" style="stroke-width:1.01105;stroke-dasharray:none;stroke-dashoffset:0"><path d="M850 0v118" style="stroke-width:2.14583;stroke-dasharray:none;stroke-dashoffset:0"/></g><g stroke="silver" style="stroke-width:1.01105;stroke-dasharray:none;stroke-dashoffset:0"><path d="M0 0v117M263 0v117M494 0v117M907 0v117" style="stroke-width:2.14583;stroke-dasharray:none;stroke-dashoffset:0" transform="translate(0 118)"/></g><g style="stroke-width:1.01105;stroke-dasharray:none;stroke-dashoffset:0"><path d="M0 58h917" style="stroke-width:2.14583;stroke-dasharray:none;stroke-dashoffset:0" transform="translate(0 118)"/></g><g stroke="red" style="stroke-width:1.01105;stroke-dasharray:none;stroke-dashoffset:0"><path d="m241 58 4 25h23l5-25" style="stroke-width:2.14583;stroke-dasharray:none;stroke-dashoffset:0" transform="translate(0 118)"/><text xml:space="preserve" x="232.77" y="96.419" fill="red" stroke="none" style="font-style:normal;font-weight:400;font-size:8.25px;font-family:&quot;MS Shell Dlg 2&quot;;fill:red;fill-opacity:1;stroke:none;stroke-width:2.14583;stroke-dasharray:none;stroke-dashoffset:0" transform="translate(0 118)"><tspan style="font-style:normal;font-variant:normal;font-weight:400;font-stretch:normal;font-size:14px;font-family:Sans;-inkscape-font-specification:&quot;Sans, Normal&quot;;font-variant-ligatures:normal;font-variant-caps:normal;font-variant-numeric:normal;font-variant-east-asian:normal">Trap #2</tspan></text><path d="m128 58 4-26h23l5 26" style="stroke-width:2.14583;stroke-dasharray:none;stroke-dashoffset:0" transform="translate(0 118)"/><text xml:space="preserve" x="120.033" y="26.422" fill="red" stroke="none" style="font-style:normal;font-weight:400;font-size:8.25px;font-family:&quot;MS Shell Dlg 2&quot;;fill:red;fill-opacity:1;stroke:none;stroke-width:2.14583;stroke-dasharray:none;stroke-dashoffset:0" transform="translate(0 118)"><tspan style="font-style:normal;font-variant:normal;font-weight:400;font-stretch:normal;font-size:14px;font-family:Sans;-inkscape-font-specification:&quot;Sans, Normal&quot;;font-variant-ligatures:normal;font-variant-caps:normal;font-variant-numeric:normal;font-variant-east-asian:normal">Trap #1</tspan></text><path d="m493 58 1-21h7l1 21m167 0h4m-135 0 1-21h7l1 21" style="stroke-width:2.14583;stroke-dasharray:none;stroke-dashoffset:0" transform="translate(0 118)"/></g><path d="M40 56v4" style="stroke-width:2.14583;stroke-dasharray:none;stroke-dashoffset:0" transform="translate(0 118)"/><text xml:space="preserve" x="32.5" y="69" fill="#000" stroke="none" style="stroke-width:2.14583;stroke-dasharray:none;stroke-dashoffset:0" transform="translate(0 118)">7940</text><path d="M85 56v4" style="stroke-width:2.14583;stroke-dasharray:none;stroke-dashoffset:0" transform="translate(0 118)"/><text xml:space="preserve" x="77.5" y="69" fill="#000" stroke="none" style="stroke-width:2.14583;stroke-dasharray:none;stroke-dashoffset:0" transform="translate(0 118)">7945</text><path d="M131 56v4" style="stroke-width:2.14583;stroke-dasharray:none;stroke-dashoffset:0" transform="translate(0 118)"/><text xml:space="preserve" x="123.5" y="69" fill="#000" stroke="none" style="stroke-width:2.14583;stroke-dasharray:none;stroke-dashoffset:0" transform="translate(0 118)">7950</text><path d="M177 56v4" style="stroke-width:2.14583;stroke-dasharray:none;stroke-dashoffset:0" transform="translate(0 118)"/><text xml:space="preserve" x="169.5" y="69" fill="#000" stroke="none" style="stroke-width:2.14583;stroke-dasharray:none;stroke-dashoffset:0" transform="translate(0 118)">7955</text><path d="M223 56v4" style="stroke-width:2.14583;stroke-dasharray:none;stroke-dashoffset:0" transform="translate(0 118)"/><text xml:space="preserve" x="215.5" y="69" fill="#000" stroke="none" style="stroke-width:2.14583;stroke-dasharray:none;stroke-dashoffset:0" transform="translate(0 118)">7960</text><path d="M269 56v4" style="stroke-width:2.14583;stroke-dasharray:none;stroke-dashoffset:0" transform="translate(0 118)"/><text xml:space="preserve" x="261.5" y="69" fill="#000" stroke="none" style="stroke-width:2.14583;stroke-dasharray:none;stroke-dashoffset:0" transform="translate(0 118)">7965</text><path d="M315 56v4" style="stroke-width:2.14583;stroke-dasharray:none;stroke-dashoffset:0" transform="translate(0 118)"/><text xml:space="preserve" x="307.5" y="69" fill="#000" stroke="none" style="stroke-width:2.14583;stroke-dasharray:none;stroke-dashoffset:0" transform="translate(0 118)">7970</text><path d="M361 56v4" style="stroke-width:2.14583;stroke-dasharray:none;stroke-dashoffset:0" transform="translate(0 118)"/><text xml:space="preserve" x="353.5" y="69" fill="#000" stroke="none" style="stroke-width:2.14583;stroke-dasharray:none;stroke-dashoffset:0" transform="translate(0 118)">7975</text><path d="M406 56v4" style="stroke-width:2.14583;stroke-dasharray:none;stroke-dashoffset:0" transform="translate(0 118)"/><text xml:space="preserve" x="398.5" y="69" fill="#000" stroke="none" style="stroke-width:2.14583;stroke-dasharray:none;stroke-dashoffset:0" transform="translate(0 118)">7980</text><path d="M452 56v4" style="stroke-width:2.14583;stroke-dasharray:none;stroke-dashoffset:0" transform="translate(0 118)"/><text xml:space="preserve" x="444.5" y="69" fill="#000" stroke="none" style="stroke-width:2.14583;stroke-dasharray:none;stroke-dashoffset:0" transform="translate(0 118)">7985</text><path d="M498 56v4" style="stroke-width:2.14583;stroke-dasharray:none;stroke-dashoffset:0" transform="translate(0 118)"/><text xml:space="preserve" x="490.5" y="69" fill="#000" stroke="none" style="stroke-width:2.14583;stroke-dasharray:none;stroke-dashoffset:0" transform="translate(0 118)">7990</text><path d="M544 56v4" style="stroke-width:2.14583;stroke-dasharray:none;stroke-dashoffset:0" transform="translate(0 118)"/><text xml:space="preserve" x="536.5" y="69" fill="#000" stroke="none" style="stroke-width:2.14583;stroke-dasharray:none;stroke-dashoffset:0" transform="translate(0 118)">7995</text><path d="M590 56v4" style="stroke-width:2.14583;stroke-dasharray:none;stroke-dashoffset:0" transform="translate(0 118)"/><text xml:space="preserve" x="582.5" y="69" fill="#000" stroke="none" style="stroke-width:2.14583;stroke-dasharray:none;stroke-dashoffset:0" transform="translate(0 118)">8000</text><path d="M636 56v4" style="stroke-width:2.14583;stroke-dasharray:none;stroke-dashoffset:0" transform="translate(0 118)"/><text xml:space="preserve" x="628.5" y="69" fill="#000" stroke="none" style="stroke-width:2.14583;stroke-dasharray:none;stroke-dashoffset:0" transform="translate(0 118)">8005</text><path d="M682 56v4" style="stroke-width:2.14583;stroke-dasharray:none;stroke-dashoffset:0" transform="translate(0 118)"/><text xml:space="preserve" x="674.5" y="69" fill="#000" stroke="none" style="stroke-width:2.14583;stroke-dasharray:none;stroke-dashoffset:0" transform="translate(0 118)">8010</text><path d="M727 56v4" style="stroke-width:2.14583;stroke-dasharray:none;stroke-dashoffset:0" transform="translate(0 118)"/><text xml:space="preserve" x="719.5" y="69" fill="#000" stroke="none" style="stroke-width:2.14583;stroke-dasharray:none;stroke-dashoffset:0" transform="translate(0 118)">8015</text><path d="M773 56v4" style="stroke-width:2.14583;stroke-dasharray:none;stroke-dashoffset:0" transform="translate(0 118)"/><text xml:space="preserve" x="765.5" y="69" fill="#000" stroke="none" style="stroke-width:2.14583;stroke-dasharray:none;stroke-dashoffset:0" transform="translate(0 118)">8020</text><path d="M819 56v4" style="stroke-width:2.14583;stroke-dasharray:none;stroke-dashoffset:0" transform="translate(0 118)"/><text xml:space="preserve" x="811.5" y="69" fill="#000" stroke="none" style="stroke-width:2.14583;stroke-dasharray:none;stroke-dashoffset:0" transform="translate(0 118)">8025</text><path d="M865 56v4" style="stroke-width:2.14583;stroke-dasharray:none;stroke-dashoffset:0" transform="translate(0 118)"/><text xml:space="preserve" x="857.5" y="69" fill="#000" stroke="none" style="stroke-width:2.14583;stroke-dasharray:none;stroke-dashoffset:0" transform="translate(0 118)">8030</text><path d="M911 56v4" style="stroke-width:2.14583;stroke-dasharray:none;stroke-dashoffset:0" transform="translate(0 118)"/><text xml:space="preserve" x="903.5" y="69" fill="#000" stroke="none" style="stroke-width:2.14583;stroke-dasharray:none;stroke-dashoffset:0" transform="translate(0 118)">8035</text><text xml:space="preserve" x="6" y="-2" fill="#000" stroke="none" style="stroke-width:2.14583;stroke-dasharray:none;stroke-dashoffset:0" transform="translate(0 118)">60</text><path d="M0 16h4" style="stroke-width:2.14583;stroke-dasharray:none;stroke-dashoffset:0" transform="translate(0 118)"/><text xml:space="preserve" x="6" y="19" fill="#000" stroke="none" style="stroke-width:2.14583;stroke-dasharray:none;stroke-dashoffset:0" transform="translate(0 118)">40</text><path d="M0 37h4" style="stroke-width:2.14583;stroke-dasharray:none;stroke-dashoffset:0" transform="translate(0 118)"/><text xml:space="preserve" x="6" y="40" fill="#000" stroke="none" style="stroke-width:2.14583;stroke-dasharray:none;stroke-dashoffset:0" transform="translate(0 118)">20</text><path d="M0 79h4" style="stroke-width:2.14583;stroke-dasharray:none;stroke-dashoffset:0" transform="translate(0 118)"/><text xml:space="preserve" x="6" y="82" fill="#000" stroke="none" style="stroke-width:2.14583;stroke-dasharray:none;stroke-dashoffset:0" transform="translate(0 118)">-20</text><path d="M0 100h4" style="stroke-width:2.14583;stroke-dasharray:none;stroke-dashoffset:0" transform="translate(0 118)"/><text xml:space="preserve" x="6" y="103" fill="#000" stroke="none" style="stroke-width:2.14583;stroke-dasharray:none;stroke-dashoffset:0" transform="translate(0 118)">-40</text><g stroke-dasharray="1,2" style="stroke-width:1.01105;stroke-dasharray:none;stroke-dashoffset:0"><path d="M850 0v117" style="stroke-width:2.14583;stroke-dasharray:none;stroke-dashoffset:0" transform="translate(0 118)"/></g><g stroke="silver" style="stroke-width:1.01105;stroke-dasharray:none;stroke-dashoffset:0"><path d="M0 0v118M263 0v118M494 0v118M907 0v118" style="stroke-width:2.14583;stroke-dasharray:none;stroke-dashoffset:0" transform="translate(0 235)"/></g><g style="stroke-width:1.01105;stroke-dasharray:none;stroke-dashoffset:0"><path d="M0 59h917" style="stroke-width:2.14583;stroke-dasharray:none;stroke-dashoffset:0" transform="translate(0 235)"/></g><g stroke="red" style="stroke-width:1.01105;stroke-dasharray:none;stroke-dashoffset:0"><path d="m241 59 4 36h23l5-36" style="stroke-width:2.14583;stroke-dasharray:none;stroke-dashoffset:0" transform="translate(0 235)"/><text xml:space="preserve" x="232.087" y="110.207" fill="red" stroke="none" style="font-style:normal;font-weight:400;font-size:8.25px;font-family:&quot;MS Shell Dlg 2&quot;;fill:red;fill-opacity:1;stroke:none;stroke-width:2.14583;stroke-dasharray:none;stroke-dashoffset:0" transform="translate(0 235)"><tspan style="font-style:normal;font-variant:normal;font-weight:400;font-stretch:normal;font-size:14px;font-family:Sans;-inkscape-font-specification:&quot;Sans, Normal&quot;;font-variant-ligatures:normal;font-variant-caps:normal;font-variant-numeric:normal;font-variant-east-asian:normal">Trap #2</tspan></text><path d="m128 59 4-37h23l5 37" style="stroke-width:2.14583;stroke-dasharray:none;stroke-dashoffset:0" transform="translate(0 235)"/><text xml:space="preserve" x="122.4" y="16.159" fill="red" stroke="none" style="font-style:normal;font-weight:400;font-size:8.25px;font-family:&quot;MS Shell Dlg 2&quot;;fill:red;fill-opacity:1;stroke:none;stroke-width:2.14583;stroke-dasharray:none;stroke-dashoffset:0" transform="translate(0 235)"><tspan style="font-style:normal;font-variant:normal;font-weight:400;font-stretch:normal;font-size:14px;font-family:Sans;-inkscape-font-specification:&quot;Sans, Normal&quot;;font-variant-ligatures:normal;font-variant-caps:normal;font-variant-numeric:normal;font-variant-east-asian:normal">Trap #1</tspan></text></g><g stroke="#0f0" stroke-width="4" style="stroke-width:4.0442;stroke-dasharray:none;stroke-dashoffset:0"><path d="M167 59h73" style="stroke-width:4.0442;stroke-dasharray:none;stroke-dashoffset:0" transform="translate(0 235)"/><text xml:space="preserve" x="178.062" y="138.058" fill="#0f0" stroke="none" style="font-style:normal;font-weight:400;font-size:8.25px;font-family:&quot;MS Shell Dlg 2&quot;;fill:#0f0;fill-opacity:1;stroke:none;stroke-width:4.0442;stroke-dasharray:none;stroke-dashoffset:0" transform="translate(0 235)"><tspan style="font-style:normal;font-variant:normal;font-weight:400;font-stretch:normal;font-size:14px;font-family:Sans;-inkscape-font-specification:&quot;Sans, Normal&quot;;font-variant-ligatures:normal;font-variant-caps:normal;font-variant-numeric:normal;font-variant-east-asian:normal">RF #1 [u]</tspan></text></g><g stroke="red" style="stroke-width:1.01105;stroke-dasharray:none;stroke-dashoffset:0"><path d="m493 59 1-30h7l1 30m-180 0h120" style="stroke-width:2.14583;stroke-dasharray:none;stroke-dashoffset:0" transform="translate(0 235)"/><text xml:space="preserve" x="363.781" y="54.256" fill="red" stroke="none" style="stroke-width:2.14583;stroke-dasharray:none;stroke-dashoffset:0" transform="translate(0 235)"><tspan style="font-style:normal;font-variant:normal;font-weight:400;font-stretch:normal;font-size:14px;font-family:Sans;-inkscape-font-specification:&quot;Sans, Normal&quot;;font-variant-ligatures:normal;font-variant-caps:normal;font-variant-numeric:normal;font-variant-east-asian:normal">Trap #5</tspan></text><path d="m309 59 4 52h5l4-52m-43 0 1-32h27l2 32" style="stroke-width:2.14583;stroke-dasharray:none;stroke-dashoffset:0" transform="translate(0 235)"/><text xml:space="preserve" x="269.35" y="21.422" fill="red" stroke="none" style="font-style:normal;font-weight:400;font-size:8.25px;font-family:&quot;MS Shell Dlg 2&quot;;fill:red;fill-opacity:1;stroke:none;stroke-width:2.14583;stroke-dasharray:none;stroke-dashoffset:0" transform="translate(0 235)"><tspan style="font-style:normal;font-variant:normal;font-weight:400;font-stretch:normal;font-size:14px;font-family:Sans;-inkscape-font-specification:&quot;Sans, Normal&quot;;font-variant-ligatures:normal;font-variant-caps:normal;font-variant-numeric:normal;font-variant-east-asian:normal">Trap #3</tspan></text></g><g stroke="#0f0" stroke-width="4" style="stroke-width:4.0442;stroke-dasharray:none;stroke-dashoffset:0"><path d="M280 59h27" style="stroke-width:4.0442;stroke-dasharray:none;stroke-dashoffset:0" transform="translate(0 235)"/><text xml:space="preserve" x="265.831" y="139.545" fill="#0f0" stroke="none" style="font-style:normal;font-weight:400;font-size:8.25px;font-family:&quot;MS Shell Dlg 2&quot;;fill:#0f0;fill-opacity:1;stroke:none;stroke-width:4.0442;stroke-dasharray:none;stroke-dashoffset:0" transform="translate(0 235)"><tspan style="font-style:normal;font-variant:normal;font-weight:400;font-stretch:normal;font-size:14px;font-family:Sans;-inkscape-font-specification:&quot;Sans, Normal&quot;;font-variant-ligatures:normal;font-variant-caps:normal;font-variant-numeric:normal;font-variant-east-asian:normal">RF #4 [u]</tspan></text></g><g stroke="red" style="stroke-width:1.01105;stroke-dasharray:none;stroke-dashoffset:0"><path d="M547 59h120" style="stroke-width:2.14583;stroke-dasharray:none;stroke-dashoffset:0" transform="translate(0 235)"/><text xml:space="preserve" x="589.607" y="52.896" fill="red" stroke="none" style="font-style:normal;font-weight:400;font-size:8.25px;font-family:&quot;MS Shell Dlg 2&quot;;fill:red;fill-opacity:1;stroke:none;stroke-width:2.14583;stroke-dasharray:none;stroke-dashoffset:0" transform="translate(0 235)"><tspan style="font-style:normal;font-variant:normal;font-weight:400;font-stretch:normal;font-size:14px;font-family:Sans;-inkscape-font-specification:&quot;Sans, Normal&quot;;font-variant-ligatures:normal;font-variant-caps:normal;font-variant-numeric:normal;font-variant-east-asian:normal">Trap #5</tspan></text><path d="m538 59 1-30h7l1 30m-39 0 1-32h28l1 32" style="stroke-width:2.14583;stroke-dasharray:none;stroke-dashoffset:0" transform="translate(0 235)"/><text xml:space="preserve" x="498.507" y="21.422" fill="red" stroke="none" style="font-style:normal;font-weight:400;font-size:8.25px;font-family:&quot;MS Shell Dlg 2&quot;;fill:red;fill-opacity:1;stroke:none;stroke-width:2.14583;stroke-dasharray:none;stroke-dashoffset:0" transform="translate(0 235)"><tspan style="font-style:normal;font-variant:normal;font-weight:400;font-stretch:normal;font-size:14px;font-family:Sans;-inkscape-font-specification:&quot;Sans, Normal&quot;;font-variant-ligatures:normal;font-variant-caps:normal;font-variant-numeric:normal;font-variant-east-asian:normal">Trap #3</tspan></text></g><g stroke="#0f0" stroke-width="4" style="stroke-width:4.0442;stroke-dasharray:none;stroke-dashoffset:0"><path d="M509 59h28" style="stroke-width:4.0442;stroke-dasharray:none;stroke-dashoffset:0" transform="translate(0 235)"/><text xml:space="preserve" x="496.575" y="114.256" fill="#0f0" stroke="none" style="font-style:normal;font-weight:400;font-size:8.25px;font-family:&quot;MS Shell Dlg 2&quot;;fill:#0f0;fill-opacity:1;stroke:none;stroke-width:4.0442;stroke-dasharray:none;stroke-dashoffset:0" transform="translate(0 235)"><tspan style="font-style:normal;font-variant:normal;font-weight:400;font-stretch:normal;font-size:14px;font-family:Sans;-inkscape-font-specification:&quot;Sans, Normal&quot;;font-variant-ligatures:normal;font-variant-caps:normal;font-variant-numeric:normal;font-variant-east-asian:normal">RF #5 [u]</tspan></text></g><g style="stroke-width:1.01105;stroke-dasharray:none;stroke-dashoffset:0"><path d="M40 57v4m45-4v4m46-4v4m46-4v4m46-4v4m46-4v4m46-4v4m46-4v4m45-4v4m46-4v4m46-4v4m46-4v4m46-4v4m46-4v4m46-4v4m45-4v4m46-4v4m46-4v4m46-4v4m46-4v4M0-2h4" style="stroke-width:2.14583;stroke-dasharray:none;stroke-dashoffset:0" transform="translate(0 235)"/><text xml:space="preserve" x="6" y="1" fill="#000" stroke="none" style="stroke-width:2.14583;stroke-dasharray:none;stroke-dashoffset:0" transform="translate(0 235)">40</text><path d="M0 14h4" style="stroke-width:2.14583;stroke-dasharray:none;stroke-dashoffset:0" transform="translate(0 235)"/><text xml:space="preserve" x="6" y="17" fill="#000" stroke="none" style="stroke-width:2.14583;stroke-dasharray:none;stroke-dashoffset:0" transform="translate(0 235)">30</text><path d="M0 29h4" style="stroke-width:2.14583;stroke-dasharray:none;stroke-dashoffset:0" transform="translate(0 235)"/><text xml:space="preserve" x="6" y="32" fill="#000" stroke="none" style="stroke-width:2.14583;stroke-dasharray:none;stroke-dashoffset:0" transform="translate(0 235)">20</text><path d="M0 44h4" style="stroke-width:2.14583;stroke-dasharray:none;stroke-dashoffset:0" transform="translate(0 235)"/><text xml:space="preserve" x="6" y="47" fill="#000" stroke="none" style="stroke-width:2.14583;stroke-dasharray:none;stroke-dashoffset:0" transform="translate(0 235)">10</text><path d="M0 74h4" style="stroke-width:2.14583;stroke-dasharray:none;stroke-dashoffset:0" transform="translate(0 235)"/><text xml:space="preserve" x="6" y="77" fill="#000" stroke="none" style="stroke-width:2.14583;stroke-dasharray:none;stroke-dashoffset:0" transform="translate(0 235)">-10</text><path d="M0 89h4" style="stroke-width:2.14583;stroke-dasharray:none;stroke-dashoffset:0" transform="translate(0 235)"/><text xml:space="preserve" x="6" y="92" fill="#000" stroke="none" style="stroke-width:2.14583;stroke-dasharray:none;stroke-dashoffset:0" transform="translate(0 235)">-20</text><path d="M0 104h4" style="stroke-width:2.14583;stroke-dasharray:none;stroke-dashoffset:0" transform="translate(0 235)"/><text xml:space="preserve" x="6" y="107" fill="#000" stroke="none" style="stroke-width:2.14583;stroke-dasharray:none;stroke-dashoffset:0" transform="translate(0 235)">-30</text><path d="M0 120h4" style="stroke-width:2.14583;stroke-dasharray:none;stroke-dashoffset:0" transform="translate(0 235)"/><text xml:space="preserve" x="6" y="123" fill="#000" stroke="none" style="stroke-width:2.14583;stroke-dasharray:none;stroke-dashoffset:0" transform="translate(0 235)">-40</text></g><g stroke-dasharray="1,2" style="stroke-width:1.01105;stroke-dasharray:none;stroke-dashoffset:0"><path d="M850 0v118" style="stroke-width:2.14583;stroke-dasharray:none;stroke-dashoffset:0" transform="translate(0 235)"/></g><g stroke="silver" style="stroke-width:1.01105;stroke-dasharray:none;stroke-dashoffset:0"><path d="M0 0v117M263 0v117M494 0v117M907 0v117" style="stroke-width:2.14583;stroke-dasharray:none;stroke-dashoffset:0" transform="translate(0 353)"/></g><g style="stroke-width:1.01105;stroke-dasharray:none;stroke-dashoffset:0"><path d="M0 58h917" style="stroke-width:2.14583;stroke-dasharray:none;stroke-dashoffset:0" transform="translate(0 353)"/></g><g stroke="#0f0" style="stroke-width:1.01105;stroke-dasharray:none;stroke-dashoffset:0"><path d="M167 58h19v-1h8v-1h1v-1h1v-2h1v-3h1v-3h1v-5h1v-4h1v-4h1v-2h2v1h1v3h1v5h1v4h1v4h1v3h1v2h1v2h1v1h8v1h21m39 0h0l2-1h-1 2v-1h3v1h1v-3h1v-4h1v-5h1v-6h1v-5h1v-3h1v-1h1v2h1v4h1v6h1v5h1v5h1v4h1v1h1v-1h2v1h4v1h1m201 0h0l2-2-1 1h1l1-1v-1h1v-1h1v1h1v2h1v-6h1v-9h1V32h1V20h1v-9h1V4h1V3h1v4h1v8h1v11h1v11h1v10h1v7h1v3l1-1v-1h1v-1l1 2v-1l1 2v-1l2 1h-1 2v1h2" style="stroke-width:2.14583;stroke-dasharray:none;stroke-dashoffset:0" transform="translate(0 353)"/></g><g style="stroke-width:1.01105;stroke-dasharray:none;stroke-dashoffset:0"><path d="M40 56v4m45-4v4m46-4v4m46-4v4m46-4v4m46-4v4m46-4v4m46-4v4m45-4v4m46-4v4m46-4v4m46-4v4m46-4v4m46-4v4m46-4v4m45-4v4m46-4v4m46-4v4m46-4v4m46-4v4M0 23h4" style="stroke-width:2.14583;stroke-dasharray:none;stroke-dashoffset:0" transform="translate(0 353)"/><text xml:space="preserve" x="6" y="26" fill="#000" stroke="none" style="stroke-width:2.14583;stroke-dasharray:none;stroke-dashoffset:0" transform="translate(0 353)">10</text><path d="M0 41h4" style="stroke-width:2.14583;stroke-dasharray:none;stroke-dashoffset:0" transform="translate(0 353)"/><text xml:space="preserve" x="6" y="44" fill="#000" stroke="none" style="stroke-width:2.14583;stroke-dasharray:none;stroke-dashoffset:0" transform="translate(0 353)">5</text><path d="M0 75h4" style="stroke-width:2.14583;stroke-dasharray:none;stroke-dashoffset:0" transform="translate(0 353)"/><text xml:space="preserve" x="6" y="78" fill="#000" stroke="none" style="stroke-width:2.14583;stroke-dasharray:none;stroke-dashoffset:0" transform="translate(0 353)">-5</text><path d="M0 93h4" style="stroke-width:2.14583;stroke-dasharray:none;stroke-dashoffset:0" transform="translate(0 353)"/><text xml:space="preserve" x="6" y="96" fill="#000" stroke="none" style="stroke-width:2.14583;stroke-dasharray:none;stroke-dashoffset:0" transform="translate(0 353)">-10</text><path d="M0 110h4" style="stroke-width:2.14583;stroke-dasharray:none;stroke-dashoffset:0" transform="translate(0 353)"/><text xml:space="preserve" x="6" y="113" fill="#000" stroke="none" style="stroke-width:2.14583;stroke-dasharray:none;stroke-dashoffset:0" transform="translate(0 353)">-15</text></g><g stroke-dasharray="1,2" style="stroke-width:1.01105;stroke-dasharray:none;stroke-dashoffset:0"><path d="M850 0v117" style="stroke-width:2.14583;stroke-dasharray:none;stroke-dashoffset:0" transform="translate(0 353)"/></g><g stroke="silver" style="stroke-width:1.01105;stroke-dasharray:none;stroke-dashoffset:0"><path d="M0 0v118M263 0v118M494 0v118M907 0v118" style="stroke-width:2.14583;stroke-dasharray:none;stroke-dashoffset:0" transform="translate(0 470)"/></g><g style="stroke-width:1.01105;stroke-dasharray:none;stroke-dashoffset:0"><text xml:space="preserve" x="6" y="19" fill="#000" stroke="none" style="stroke-width:2.14583;stroke-dasharray:none;stroke-dashoffset:0" transform="translate(0 470)">AQ</text></g><g stroke="red" style="stroke-width:1.01105;stroke-dasharray:none;stroke-dashoffset:0"><path d="M241 48V31m4 17V31m0 8h23m0 9V31m5 17V31M128 48V31m4 17V31m0 8h23m0 9V31m5 17V31" style="stroke-width:2.14583;stroke-dasharray:none;stroke-dashoffset:0" transform="translate(0 470)"/></g><g style="stroke-width:1.01105;stroke-dasharray:none;stroke-dashoffset:0"><text xml:space="preserve" x="6" y="40" fill="#000" stroke="none" style="stroke-width:2.14583;stroke-dasharray:none;stroke-dashoffset:0" transform="translate(0 470)">M</text></g><g stroke="red" style="stroke-width:1.01105;stroke-dasharray:none;stroke-dashoffset:0"><path d="M241 69V52m4 17V52m0 9h23m0 8V52m5 17V52M128 69V52m4 17V52m0 9h23m0 8V52m5 17V52" style="stroke-width:2.14583;stroke-dasharray:none;stroke-dashoffset:0" transform="translate(0 470)"/></g><g style="stroke-width:1.01105;stroke-dasharray:none;stroke-dashoffset:0"><text xml:space="preserve" x="6" y="62" fill="#000" stroke="none" style="stroke-width:2.14583;stroke-dasharray:none;stroke-dashoffset:0" transform="translate(0 470)">P</text></g><g stroke="red" style="stroke-width:1.01105;stroke-dasharray:none;stroke-dashoffset:0"><path d="M241 91V73m4 18V73m0 9h23m0 9V73m5 18V73M128 91V73m4 18V73m0 9h23m0 9V73m5 18V73" style="stroke-width:2.14583;stroke-dasharray:none;stroke-dashoffset:0" transform="translate(0 470)"/></g><g style="stroke-width:1.01105;stroke-dasharray:none;stroke-dashoffset:0"><text xml:space="preserve" x="6" y="83" fill="#000" stroke="none" style="stroke-width:2.14583;stroke-dasharray:none;stroke-dashoffset:0" transform="translate(0 470)">S</text></g><g stroke="#0f0" style="stroke-width:1.01105;stroke-dasharray:none;stroke-dashoffset:0"><path d="M167 112V95m73 17V95m-73 8h73m-73 0v-8" style="stroke-width:2.14583;stroke-dasharray:none;stroke-dashoffset:0" transform="translate(0 470)"/></g><g fill="#000" stroke="none" style="stroke-width:1.01105;stroke-dasharray:none;stroke-dashoffset:0"><text xml:space="preserve" x="6" y="104" style="stroke-width:2.14583;stroke-dasharray:none;stroke-dashoffset:0" transform="translate(0 470)">RF</text><text xml:space="preserve" x="6" y="19" style="stroke-width:2.14583;stroke-dasharray:none;stroke-dashoffset:0" transform="translate(0 470)">AQ</text></g><g stroke="red" style="stroke-width:1.01105;stroke-dasharray:none;stroke-dashoffset:0"><path d="M493 48V31m1 17V31m0 8h7m0 9V31m1 17V31" style="stroke-width:2.14583;stroke-dasharray:none;stroke-dashoffset:0" transform="translate(0 470)"/></g><g style="stroke-width:1.01105;stroke-dasharray:none;stroke-dashoffset:0"><text xml:space="preserve" x="6" y="40" fill="#000" stroke="none" style="stroke-width:2.14583;stroke-dasharray:none;stroke-dashoffset:0" transform="translate(0 470)">M</text></g><g stroke="red" style="stroke-width:1.01105;stroke-dasharray:none;stroke-dashoffset:0"><path d="M493 69V52m1 17V52m0 9h7m0 8V52m1 17V52" style="stroke-width:2.14583;stroke-dasharray:none;stroke-dashoffset:0" transform="translate(0 470)"/></g><g style="stroke-width:1.01105;stroke-dasharray:none;stroke-dashoffset:0"><text xml:space="preserve" x="6" y="62" fill="#000" stroke="none" style="stroke-width:2.14583;stroke-dasharray:none;stroke-dashoffset:0" transform="translate(0 470)">P</text></g><g stroke="red" style="stroke-width:1.01105;stroke-dasharray:none;stroke-dashoffset:0"><path d="M493 91V73m1 18V73m0 9h7m0 9V73m1 18V73M322 91V73m0 18V73m0 9h120m0 9V73m0 18V73M309 91V73m4 18V73m0 9h5m0 9V73m4 18V73m-43 18V73m1 18V73m0 9h27m0 9V73m2 18V73" style="stroke-width:2.14583;stroke-dasharray:none;stroke-dashoffset:0" transform="translate(0 470)"/></g><g style="stroke-width:1.01105;stroke-dasharray:none;stroke-dashoffset:0"><text xml:space="preserve" x="6" y="83" fill="#000" stroke="none" style="stroke-width:2.14583;stroke-dasharray:none;stroke-dashoffset:0" transform="translate(0 470)">S</text></g><g stroke="#0f0" style="stroke-width:1.01105;stroke-dasharray:none;stroke-dashoffset:0"><path d="M280 112V95m27 17V95m-27 8h27m-27 0v-8" style="stroke-width:2.14583;stroke-dasharray:none;stroke-dashoffset:0" transform="translate(0 470)"/></g><g style="stroke-width:1.01105;stroke-dasharray:none;stroke-dashoffset:0"><text xml:space="preserve" x="6" y="104" fill="#000" stroke="none" style="stroke-width:2.14583;stroke-dasharray:none;stroke-dashoffset:0" transform="translate(0 470)">RF</text></g><g stroke="#f0f" style="stroke-width:1.01105;stroke-dasharray:none;stroke-dashoffset:0"><path d="M674 26V9m5 17V9m-5 9h5m1 8V9m5 17V9m-5 9h5m1 8V9m6 17V9m-6 9h6m1 8V9m5 17V9m-5 9h5m1 8V9m5 17V9m-5 9h5m1 8V9m6 17V9m-6 9h6m1 8V9m5 17V9m-5 9h5m1 8V9m5 17V9m-5 9h5m1 8V9m6 17V9m-6 9h6m1 8V9m5 17V9m-5 9h5m1 8V9m5 17V9m-5 9h5m1 8V9m6 17V9m-6 9h6m1 8V9m5 17V9m-5 9h5m1 8V9m5 17V9m-5 9h5m1 8V9m6 17V9m-6 9h6m1 8V9m5 17V9m-5 9h5m1 8V9m5 17V9m-5 9h5m1 8V9m6 17V9m-6 9h6m1 8V9m5 17V9m-5 9h5m1 8V9m5 17V9m-5 9h5m1 8V9m6 17V9m-6 9h6m1 8V9m5 17V9m-5 9h5m1 8V9m5 17V9m-5 9h5m1 8V9m6 17V9m-6 9h6m1 8V9m5 17V9m-5 9h5m1 8V9m5 17V9m-5 9h5m1 8V9m6 17V9m-6 9h6m0 8V9m6 17V9m-6 9h6m1 8V9m5 17V9m-5 9h5m1 8V9m6 17V9m-6 9h6m0 8V9m6 17V9m-6 9h6m1 8V9m5 17V9m-5 9h5m1 8V9m5 17V9m-5 9h5m1 8V9m6 17V9m-6 9h6m1 8V9m5 17V9m-5 9h5m1 8V9m5 17V9m-5 9h5m1 8V9m6 17V9m-6 9h6" style="stroke-width:2.14583;stroke-dasharray:none;stroke-dashoffset:0" transform="translate(0 470)"/></g><g style="stroke-width:1.01105;stroke-dasharray:none;stroke-dashoffset:0"><text xml:space="preserve" x="6" y="19" fill="#000" stroke="none" style="stroke-width:2.14583;stroke-dasharray:none;stroke-dashoffset:0" transform="translate(0 470)">AQ</text></g><g stroke="red" style="stroke-width:1.01105;stroke-dasharray:none;stroke-dashoffset:0"><path d="M901 48V31m2 17V31m0 8h2m0 9V31m2 17V31m-12 17V31m2 17V31m0 8h2m0 9V31m2 17V31m-13 17V31m2 17V31m0 8h2m0 9V31m3 17V31m-13 17V31m2 17V31m0 8h2m0 9V31m2 17V31m-12 17V31m2 17V31m0 8h2m0 9V31m2 17V31m-13 17V31m3 17V31m0 8h1m0 9V31m3 17V31m-13 17V31m2 17V31m0 8h2m0 9V31m2 17V31m-12 17V31m2 17V31m0 8h2m0 9V31m2 17V31m-13 17V31m3 17V31m0 8h1m0 9V31m3 17V31m-13 17V31m2 17V31m0 8h2m0 9V31m2 17V31m-12 17V31m2 17V31m0 8h2m0 9V31m2 17V31m-13 17V31m3 17V31m0 8h1m0 9V31m3 17V31m-13 17V31m2 17V31m0 8h2m0 9V31m2 17V31m-12 17V31m2 17V31m0 8h2m0 9V31m2 17V31m-13 17V31m3 17V31m0 8h1m0 9V31m3 17V31m-13 17V31m2 17V31m0 8h2m0 9V31m2 17V31m-12 17V31m2 17V31m0 8h2m0 9V31m2 17V31m-13 17V31m3 17V31m0 8h2m0 9V31m2 17V31m-13 17V31m2 17V31m0 8h2m0 9V31m2 17V31m-12 17V31m2 17V31m0 8h2m0 9V31m2 17V31m-13 17V31m3 17V31m0 8h2m0 9V31m2 17V31m-13 17V31m2 17V31m0 8h2m0 9V31m2 17V31m-12 17V31m2 17V31m0 8h2m0 9V31m2 17V31m-13 17V31m3 17V31m0 8h2m0 9V31m2 17V31m-13 17V31m2 17V31m0 8h2m0 9V31m2 17V31m-12 17V31m2 17V31m0 8h2m0 9V31m2 17V31m-13 17V31m3 17V31m0 8h2m0 9V31m2 17V31m-13 17V31m2 17V31m0 8h2m0 9V31m2 17V31m-12 17V31m2 17V31m0 8h2m0 9V31m2 17V31m-13 17V31m3 17V31m0 8h2m0 9V31m2 17V31m-13 17V31m2 17V31m0 8h2m0 9V31m2 17V31m-12 17V31m2 17V31m0 8h2m0 9V31m2 17V31m-13 17V31m3 17V31m0 8h2m0 9V31m2 17V31m-13 17V31m2 17V31m0 8h2m0 9V31m2 17V31m-12 17V31m2 17V31m0 8h2m0 9V31m2 17V31m-13 17V31m3 17V31m0 8h2m0 9V31m2 17V31m-13 17V31m2 17V31m0 8h2m0 9V31m2 17V31m-10 17V31m2 17V31m0 8h0m0 9V31m2 17V31M538 48V31m1 17V31m0 8h7m0 9V31m1 17V31" style="stroke-width:2.14583;stroke-dasharray:none;stroke-dashoffset:0" transform="translate(0 470)"/></g><g style="stroke-width:1.01105;stroke-dasharray:none;stroke-dashoffset:0"><text xml:space="preserve" x="6" y="40" fill="#000" stroke="none" style="stroke-width:2.14583;stroke-dasharray:none;stroke-dashoffset:0" transform="translate(0 470)">M</text></g><g stroke="red" style="stroke-width:1.01105;stroke-dasharray:none;stroke-dashoffset:0"><path d="M669 69V52m0 17V52m0 9h4m0 8V52m0 17V52M538 69V52m1 17V52m0 9h7m0 8V52m1 17V52" style="stroke-width:2.14583;stroke-dasharray:none;stroke-dashoffset:0" transform="translate(0 470)"/></g><g style="stroke-width:1.01105;stroke-dasharray:none;stroke-dashoffset:0"><text xml:space="preserve" x="6" y="62" fill="#000" stroke="none" style="stroke-width:2.14583;stroke-dasharray:none;stroke-dashoffset:0" transform="translate(0 470)">P</text></g><g stroke="red" style="stroke-width:1.01105;stroke-dasharray:none;stroke-dashoffset:0"><path d="M547 91V73m0 18V73m0 9h119m0 9V73m1 18V73M538 91V73m1 18V73m0 9h7m0 9V73m1 18V73m-39 18V73m1 18V73m0 9h28m0 9V73m1 18V73" style="stroke-width:2.14583;stroke-dasharray:none;stroke-dashoffset:0" transform="translate(0 470)"/></g><g style="stroke-width:1.01105;stroke-dasharray:none;stroke-dashoffset:0"><text xml:space="preserve" x="6" y="83" fill="#000" stroke="none" style="stroke-width:2.14583;stroke-dasharray:none;stroke-dashoffset:0" transform="translate(0 470)">S</text></g><g stroke="#0f0" style="stroke-width:1.01105;stroke-dasharray:none;stroke-dashoffset:0"><path d="M509 112V95m28 17V95m-28 8h28m-28 0v-8" style="stroke-width:2.14583;stroke-dasharray:none;stroke-dashoffset:0" transform="translate(0 470)"/></g><g fill="#000" stroke="none" style="stroke-width:1.01105;stroke-dasharray:none;stroke-dashoffset:0"><text xml:space="preserve" x="6" y="104" style="stroke-width:2.14583;stroke-dasharray:none;stroke-dashoffset:0" transform="translate(0 470)">RF</text><text xml:space="preserve" x="6" y="19" style="stroke-width:2.14583;stroke-dasharray:none;stroke-dashoffset:0" transform="translate(0 470)">AQ</text><text xml:space="preserve" x="6" y="40" style="stroke-width:2.14583;stroke-dasharray:none;stroke-dashoffset:0" transform="translate(0 470)">M</text><text xml:space="preserve" x="6" y="62" style="stroke-width:2.14583;stroke-dasharray:none;stroke-dashoffset:0" transform="translate(0 470)">P</text><text xml:space="preserve" x="6" y="83" style="stroke-width:2.14583;stroke-dasharray:none;stroke-dashoffset:0" transform="translate(0 470)">S</text><text xml:space="preserve" x="6" y="104" style="stroke-width:2.14583;stroke-dasharray:none;stroke-dashoffset:0" transform="translate(0 470)">RF</text></g><g stroke-dasharray="1,2" style="stroke-width:1.01105;stroke-dasharray:none;stroke-dashoffset:0"><path d="M850 0v118" style="stroke-width:2.14583;stroke-dasharray:none;stroke-dashoffset:0" transform="translate(0 470)"/></g></g></svg>