<?xml version="1.0" encoding="UTF-8" standalone="no"?>
<svg
   width="53"
   height="83.300003"
   viewBox="0 20 53 92.55556"
   version="1.1"
   id="svg3"
   sodipodi:docname="NWO.svg"
   xmlns:inkscape="http://www.inkscape.org/namespaces/inkscape"
   xmlns:sodipodi="http://sodipodi.sourceforge.net/DTD/sodipodi-0.dtd"
   xmlns:xlink="http://www.w3.org/1999/xlink"
   xmlns="http://www.w3.org/2000/svg"
   xmlns:svg="http://www.w3.org/2000/svg">
  <sodipodi:namedview
     id="namedview3"
     pagecolor="#ffffff"
     bordercolor="#999999"
     borderopacity="1"
     inkscape:showpageshadow="2"
     inkscape:pageopacity="0"
     inkscape:pagecheckerboard="0"
     inkscape:deskcolor="#d1d1d1">
    <inkscape:page
       x="0"
       y="0"
       width="53"
       height="92.555557"
       id="page2"
       margin="0"
       bleed="0" />
  </sodipodi:namedview>
  <defs
     id="defs2">
    <path
       id="iji-a"
       d="m 38.841162,0 c 5.691155,2.6547826 10.348437,7.0635913 13.341444,12.71753 v 0 c 0.254176,0.480853 0.490809,0.968061 0.717366,1.458261 v 0 V 0 Z M 0,0 V 14.571017 C 2.6164085,8.6183217 7.1135704,3.7443652 12.936106,0.64948696 v 0 C 13.364584,0.4214 13.797169,0.20527826 14.233486,0 V 0 Z M 14.458549,5.4064087 C 8.5542747,8.5446609 4.2220845,13.798139 2.2614578,20.199904 v 0 c -1.96100005,6.40027 -1.31641555,13.184548 1.816183,19.100974 v 0 c 3.1322254,5.914931 8.3766132,10.254939 14.7664722,12.219105 v 0 c 6.389859,1.963791 13.161915,1.317669 19.066563,-1.819461 v 0 C 43.815324,46.56227 48.147141,41.308791 50.107394,34.9074 v 0 c 0.743867,-2.429313 1.113,-4.914713 1.113,-7.38553 v 0 c 0,-3.286322 -0.652049,-6.549087 -1.941218,-9.62714 v 0 c 0.599049,3.083661 0.437063,6.2866 -0.509472,9.375496 v 0 c -1.518338,4.956218 -4.874134,9.024391 -9.44781,11.454078 v 0 c -2.837739,1.507992 -5.934133,2.27227 -9.057774,2.27227 v 0 c -1.910986,0 -3.831303,-0.286418 -5.71019,-0.862991 v 0 c -4.948782,-1.521079 -9.01112,-4.881809 -11.437176,-9.46187 v 0 C 8.1097465,21.2162 11.716359,9.4428 21.157824,4.4275044 v 0 C 22.921753,3.4904783 24.786831,2.8432348 26.695577,2.4854 v 0 C 26.513437,2.48166 26.331669,2.47942 26.149901,2.47942 v 0 c -4.032105,0 -8.02838,0.9811478 -11.691352,2.9269913 z m 7.012423,0.1308696 C 13.601592,9.7187478 10.595148,19.534713 14.769085,27.417922 v 0 c 2.022211,3.8184 5.407866,6.62013 9.532162,7.888069 v 0 c 4.124668,1.267939 8.496049,0.850653 12.30869,-1.175208 v 0 c 3.812267,-2.025487 6.607831,-5.416131 7.873859,-9.549366 v 0 c 1.146218,-3.744365 0.908465,-7.689521 -0.64981,-11.238704 v 0 c 0.355697,1.914809 0.249324,3.899913 -0.337782,5.815096 v 0 c -0.956239,3.125539 -3.070641,5.689461 -5.953542,7.221382 v 0 c -1.787444,0.949739 -3.739113,1.432087 -5.707578,1.432087 v 0 c -1.20407,0 -2.414859,-0.179852 -3.598028,-0.544043 v 0 c -3.118788,-0.959461 -5.679211,-3.076931 -7.208373,-5.964287 v 0 C 17.87369,15.3424 20.146718,7.9206 26.095782,4.7591652 v 0 c 0.948774,-0.5040348 1.9345,-0.8686 2.934035,-1.1030435 v 0 c -0.0056,0 -0.01157,0 -0.01717,0 v 0 c -2.550345,0 -5.135775,0.6031218 -7.541675,1.8811566 z m 6.74481,0.5354434 C 26.629887,6.9155217 25.370951,8.1356 24.485253,9.5632 v 0 c 0.951015,-0.6165826 2.08193,-0.9785304 3.299064,-0.9785304 v 0 c 3.361021,0 6.086415,2.7299394 6.086415,6.0977744 v 0 c 0,3.367086 -2.725394,6.097399 -6.086415,6.097399 v 0 c -1.301113,0 -2.504064,-0.412426 -3.493521,-1.1094 v 0 c 1.245127,2.182157 3.238972,3.784374 5.649352,4.526218 v 0 c 2.510782,0.771756 5.171979,0.517122 7.492035,-0.715296 v 0 c 2.321549,-1.233539 4.023894,-3.298287 4.794261,-5.814722 v 0 c 0.771112,-2.515313 0.517309,-5.180939 -0.714007,-7.506678 v 0 C 39.748134,6.8284 36.333366,4.9259301 32.807746,4.9259301 v 0 C 31.254697,4.9255565 29.680747,5.2946087 28.215782,6.0727217 Z M 0,85.852304 H 4.0977958 V 70.488591 h 2.7231549 l 6.5753593,8.893522 v -8.893522 h 3.328922 v 15.363713 h 4.709536 L 17.600852,70.488591 h 3.786887 l 2.04274,9.004948 2.763838,-9.049069 h 2.809373 l 2.763838,9.133574 2.064014,-9.089453 h 3.732395 l -3.833916,15.363713 h 8.486718 C 39.076303,84.678591 37.054838,81.691026 37.054838,78.18933 v 0 -0.04487 c 0,-4.522478 3.407303,-8.204774 8.211268,-8.204774 v 0 c 3.639457,0 6.472345,2.089052 7.633866,5.067269 v 0 -36.486434 C 50.259303,44.293739 45.83343,49.02 40.139662,52.046452 v 0 C 25.999486,59.562478 8.3937817,54.147843 0.89353521,39.978035 v 0 C 0.5706831,39.368183 0.27694366,38.748235 0,38.123426 v 0 z M 40.550972,78.09847 v 0.04599 c 0,2.7262 1.957641,4.913217 4.715134,4.913217 v 0 c 2.757866,0 4.733795,-2.1414 4.733795,-4.868348 v 0 -0.04487 c 0,-2.727322 -2.020345,-4.851522 -4.778211,-4.851522 v 0 c -2.757866,0 -4.670718,2.078957 -4.670718,4.805531 z M 7.447993,85.852304 h 6.682479 L 7.447993,76.792765 Z m 17.141021,0 h 5.965859 l -2.998232,-9.050939 z m 23.632775,0 h 4.678183 v -4.621939 c -0.82374,2.121583 -2.490627,3.807557 -4.678183,4.621939 z" />
    <linearGradient
       id="iji-b"
       x1="21.523426"
       x2="45.867847"
       y1="67.974213"
       y2="-0.58293456"
       gradientTransform="scale(0.78496762,1.2739379)"
       gradientUnits="userSpaceOnUse">
      <stop
         offset="0%"
         stop-color="#0E647C"
         id="stop1" />
      <stop
         offset="100%"
         stop-color="#42A8BA"
         id="stop2" />
    </linearGradient>
  </defs>
  <g
     fill="none"
     fill-rule="evenodd"
     id="g3"
     transform="translate(0,-2.6605503)">
    <g
       transform="translate(0,26)"
       id="g2">
      <mask
         id="iji-c"
         fill="#ffffff">
        <use
           xlink:href="#iji-a"
           id="use2" />
      </mask>
      <path
         fill="url(#iji-b)"
         d="m 38.841162,0 c 5.691155,2.6547826 10.348437,7.0635913 13.341444,12.71753 v 0 c 0.254176,0.480853 0.490809,0.968061 0.717366,1.458261 v 0 V 0 Z M 0,0 V 14.571017 C 2.6164085,8.6183217 7.1135704,3.7443652 12.936106,0.64948696 v 0 C 13.364584,0.4214 13.797169,0.20527826 14.233486,0 V 0 Z M 14.458549,5.4064087 C 8.5542747,8.5446609 4.2220845,13.798139 2.2614578,20.199904 v 0 c -1.96100005,6.40027 -1.31641555,13.184548 1.816183,19.100974 v 0 c 3.1322254,5.914931 8.3766132,10.254939 14.7664722,12.219105 v 0 c 6.389859,1.963791 13.161915,1.317669 19.066563,-1.819461 v 0 C 43.815324,46.56227 48.147141,41.308791 50.107394,34.9074 v 0 c 0.743867,-2.429313 1.113,-4.914713 1.113,-7.38553 v 0 c 0,-3.286322 -0.652049,-6.549087 -1.941218,-9.62714 v 0 c 0.599049,3.083661 0.437063,6.2866 -0.509472,9.375496 v 0 c -1.518338,4.956218 -4.874134,9.024391 -9.44781,11.454078 v 0 c -2.837739,1.507992 -5.934133,2.27227 -9.057774,2.27227 v 0 c -1.910986,0 -3.831303,-0.286418 -5.71019,-0.862991 v 0 c -4.948782,-1.521079 -9.01112,-4.881809 -11.437176,-9.46187 v 0 C 8.1097465,21.2162 11.716359,9.4428 21.157824,4.4275044 v 0 C 22.921753,3.4904783 24.786831,2.8432348 26.695577,2.4854 v 0 C 26.513437,2.48166 26.331669,2.47942 26.149901,2.47942 v 0 c -4.032105,0 -8.02838,0.9811478 -11.691352,2.9269913 z m 7.012423,0.1308696 C 13.601592,9.7187478 10.595148,19.534713 14.769085,27.417922 v 0 c 2.022211,3.8184 5.407866,6.62013 9.532162,7.888069 v 0 c 4.124668,1.267939 8.496049,0.850653 12.30869,-1.175208 v 0 c 3.812267,-2.025487 6.607831,-5.416131 7.873859,-9.549366 v 0 c 1.146218,-3.744365 0.908465,-7.689521 -0.64981,-11.238704 v 0 c 0.355697,1.914809 0.249324,3.899913 -0.337782,5.815096 v 0 c -0.956239,3.125539 -3.070641,5.689461 -5.953542,7.221382 v 0 c -1.787444,0.949739 -3.739113,1.432087 -5.707578,1.432087 v 0 c -1.20407,0 -2.414859,-0.179852 -3.598028,-0.544043 v 0 c -3.118788,-0.959461 -5.679211,-3.076931 -7.208373,-5.964287 v 0 C 17.87369,15.3424 20.146718,7.9206 26.095782,4.7591652 v 0 c 0.948774,-0.5040348 1.9345,-0.8686 2.934035,-1.1030435 v 0 c -0.0056,0 -0.01157,0 -0.01717,0 v 0 c -2.550345,0 -5.135775,0.6031218 -7.541675,1.8811566 z m 6.74481,0.5354434 C 26.629887,6.9155217 25.370951,8.1356 24.485253,9.5632 v 0 c 0.951015,-0.6165826 2.08193,-0.9785304 3.299064,-0.9785304 v 0 c 3.361021,0 6.086415,2.7299394 6.086415,6.0977744 v 0 c 0,3.367086 -2.725394,6.097399 -6.086415,6.097399 v 0 c -1.301113,0 -2.504064,-0.412426 -3.493521,-1.1094 v 0 c 1.245127,2.182157 3.238972,3.784374 5.649352,4.526218 v 0 c 2.510782,0.771756 5.171979,0.517122 7.492035,-0.715296 v 0 c 2.321549,-1.233539 4.023894,-3.298287 4.794261,-5.814722 v 0 c 0.771112,-2.515313 0.517309,-5.180939 -0.714007,-7.506678 v 0 C 39.748134,6.8284 36.333366,4.9259301 32.807746,4.9259301 v 0 C 31.254697,4.9255565 29.680747,5.2946087 28.215782,6.0727217 Z M 0,85.852304 H 4.0977958 V 70.488591 h 2.7231549 l 6.5753593,8.893522 v -8.893522 h 3.328922 v 15.363713 h 4.709536 L 17.600852,70.488591 h 3.786887 l 2.04274,9.004948 2.763838,-9.049069 h 2.809373 l 2.763838,9.133574 2.064014,-9.089453 h 3.732395 l -3.833916,15.363713 h 8.486718 C 39.076303,84.678591 37.054838,81.691026 37.054838,78.18933 v 0 -0.04487 c 0,-4.522478 3.407303,-8.204774 8.211268,-8.204774 v 0 c 3.639457,0 6.472345,2.089052 7.633866,5.067269 v 0 -36.486434 C 50.259303,44.293739 45.83343,49.02 40.139662,52.046452 v 0 C 25.999486,59.562478 8.3937817,54.147843 0.89353521,39.978035 v 0 C 0.5706831,39.368183 0.27694366,38.748235 0,38.123426 v 0 z M 40.550972,78.09847 v 0.04599 c 0,2.7262 1.957641,4.913217 4.715134,4.913217 v 0 c 2.757866,0 4.733795,-2.1414 4.733795,-4.868348 v 0 -0.04487 c 0,-2.727322 -2.020345,-4.851522 -4.778211,-4.851522 v 0 c -2.757866,0 -4.670718,2.078957 -4.670718,4.805531 z M 7.447993,85.852304 h 6.682479 L 7.447993,76.792765 Z m 17.141021,0 h 5.965859 l -2.998232,-9.050939 z m 23.632775,0 h 4.678183 v -4.621939 c -0.82374,2.121583 -2.490627,3.807557 -4.678183,4.621939 z"
         mask="url(#iji-c)"
         id="path2"
         style="fill:url(#iji-b)" />
    </g>
  </g>
</svg>
